<?xml version="1.0" encoding="utf-8"?>
<!-- Generator: Adobe Illustrator 27.3.1, SVG Export Plug-In . SVG Version: 6.00 Build 0)  -->
<svg version="1.1" id="Layer_1" xmlns="http://www.w3.org/2000/svg" xmlns:xlink="http://www.w3.org/1999/xlink" x="0px" y="0px"
	 viewBox="0 0 878.2 548.7" style="enable-background:new 0 0 878.2 548.7;" xml:space="preserve">
<style type="text/css">
	.st0{opacity:0.1;fill:#43457B;enable-background:new    ;}
	.st1{fill:#009688;}
	.st2{fill:#ff3a96;}
	.st3{opacity:0.3;fill:#FFFFFF;enable-background:new    ;}
	.st4{fill:#918F8F;}
	.st5{fill:#FFFFFF;}
	.st6{fill:url(#Rectangle_4284_00000139294246005549683150000002285681115652464566_);}
	.st7{fill:url(#Path_8681_00000165924548212978063360000007384042004439050421_);}
	.st8{clip-path:url(#SVGID_00000093896457130546981530000004621189471082436483_);}
	.st9{fill:#E6BD7B;}
	.st10{fill:#DCAD69;}
	.st11{fill:#D38732;}
	.st12{fill:#FBDCAE;}
	.st13{fill:#F8AC9B;}
	.st14{fill:url(#Path_8708_00000072961958782499732160000004007669798791494319_);}
	.st15{fill:#353535;}
	.st16{fill:url(#Path_8713_00000136382334603944588680000003013367461863926415_);}
	.st17{opacity:0.1;fill:#221F1F;enable-background:new    ;}
	.st18{opacity:0.5;fill:#F8AC9B;enable-background:new    ;}
	.st19{fill:url(#Path_8724_00000080189576435748588470000000565035666613996213_);}
	.st20{fill:url(#Path_8725_00000148634068396110317230000005991170349167520920_);}
	.st21{fill:url(#Path_8726_00000043448574123132146710000003135686881368186497_);}
	.st22{fill:url(#Path_8744_00000137125331237718243940000007567733615190423684_);}
	.st23{fill:url(#Path_8746_00000088852465941885596180000016789993069268026757_);}
	.st24{fill:#FDE795;}
	.st25{fill:#E3E3E3;}
</style>
<g id="Group_9342" transform="translate(-109.735 -284.094)">
	<g id="Group_9286" transform="translate(115.278 810.265)">
		<ellipse id="Ellipse_719" class="st0" cx="436.1" cy="11.3" rx="436.1" ry="11.3"/>
	</g>
	<g id="Group_9341" transform="translate(109.735 284.094)">
		<g id="Group_9290" transform="translate(745.465 390.82)">
			<g id="Group_9289">
				<path id="Path_8667" class="st1" d="M126.5,89.2c2,3.7,6.3,1.1,6.3,1.1s-0.2-1.2-2.2-2.2c-1.4-0.8-3.5-0.1-4.2,0.1l-2.4-0.1h0
					c-0.5,0-1.1,0.1-1.6,0.1c6.8-2.4,3.6-10.4,3.6-10.4s-2.1,0.1-4.4,3.1c-1.8,2.4-1.1,6.5-0.9,7.5c-2.7,0.4-5.3,1.1-7.8,2
					c0.3-0.3,0.7-0.7,1-1.1c2.6-3.1,1.4-9,1.4-9c-9.3,1.2-7.4,9.9-6.9,11.9c-2.9,1.4-5.7,3.1-8.4,5c0.8-1.2,1.5-2.6,1.8-4
					c1.2-4.4-2.8-9.8-2.8-9.8c-9.1,5.7-2.5,14-1.3,15.4c-1.6,1.3-3.1,2.5-4.5,3.7c-1.5,1.3-2.8,2.7-4.1,3.9c0.6-1.9,0.8-3.9,0.5-5.9
					c-0.7-4.9-6.9-8.7-6.9-8.7c-6.6,9.4,2.8,14.9,5.1,16c-2.4,2.6-4.6,5.3-6.7,8.2l0.8,0.6c1.4-2,2.9-3.9,4.4-5.7
					c3.5,11.1,15.6,5.5,15.6,5.5s-0.3-3-4.8-6c-2.9-1.9-7.2-1.4-9.5-0.9c2-2.2,4-4.3,6.2-6.2c0.8-0.7,1.6-1.4,2.5-2.2
					c3.1,10.5,14.3,5.2,14.3,5.2s-0.3-2.8-4.4-5.5c-2.6-1.7-6.4-1.3-8.5-0.9c2.8-2.2,5.7-4.1,8.8-5.8c1.9,9.9,12.4,5.9,12.4,5.9
					s-0.1-2.5-3.5-5.2c-2.3-1.8-5.9-1.6-7.8-1.3c3.6-1.8,7.4-3.2,11.3-3.9c-0.2,9,9.6,7.2,9.6,7.2s0.3-2.1-2.1-4.9
					c-1.9-2.2-5.9-2.4-7.1-2.4c1.4-0.3,2.9-0.4,4.3-0.5L126.5,89.2z"/>
				<g id="Group_9288">
					<g id="Group_9287" transform="translate(37.067)">
						<path id="Path_8668" class="st2" d="M10.9,142.5c0,0-20.2-45.5-5.6-87.9S55.1,0,55.1,0s-20.9,24.2-8.8,62
							C57.9,97.8,36,142.5,36,142.5L10.9,142.5z"/>
						<path id="Path_8669" class="st3" d="M18,142.5c0,0-5.2-92.6,16.7-117c-19.9,30.7-11.6,117-11.6,117H18z"/>
					</g>
					<path id="Path_8670" class="st4" d="M89.7,142.5H68.2c0.9-3.8,4-15.3,11.7-24c5.3-6.2,13.1-9.7,21.3-9.5c0,0-6.5,7.1-7.4,19.8
						C93.2,133.6,91.9,138.3,89.7,142.5z"/>
					<path id="Path_8671" class="st1" d="M39.8,92.2c15.7,20.5,19.2,47.2,19.6,50.4H28.9c-7.7-7.1-17.2-18.7-17.3-32.6
						C11.5,85.2,0,70.5,0,70.5S23.1,70.4,39.8,92.2z"/>
					<path id="Path_8672" class="st3" d="M75.2,142.5h-1.6c3.1-7,10.9-23.5,18.2-26.9C84.6,120.5,78,135.4,75.2,142.5z"/>
					<path id="Path_8673" class="st3" d="M49.8,142.5h-3.2C42.9,130.2,31.5,96,17.2,84.7C32,92.9,45.8,130.9,49.8,142.5z"/>
				</g>
			</g>
			<rect id="Rectangle_4283" x="11.3" y="142.5" class="st1" width="91.1" height="3.6"/>
		</g>
		<g id="Group_9291" transform="translate(222.734)">
			<path id="Path_8674" class="st5" d="M24.4,8.4l8.4,4.6l-8.4,4.6l-4.6,8.4l-4.6-8.4L6.9,13l8.4-4.6L19.9,0L24.4,8.4z"/>
			<path id="Path_8675" class="st5" d="M11,37l5.3,2.9L11,42.7L8.2,48l-2.9-5.3L0,39.9L5.3,37l2.9-5.3L11,37z"/>
			<path id="Path_8676" class="st5" d="M41.5,30.2l8,4.4l-8,4.4l-4.4,8l-4.4-8l-8-4.4l8-4.4l4.4-8L41.5,30.2z"/>
		</g>
		<g id="Group_9292" transform="translate(0 398.564)">
			<path id="Path_8678" class="st2" d="M56.1,77.1c-1.3-1.4-2.5-3-3.4-4.8c-1.1-2.5-0.7-5.4,0.1-8s2-5.1,2.7-7.7
				c1.7-6.6,0-13.6-4.6-18.7c-1.1-1-2.1-2.1-3-3.3c-1.9-2.9-1.9-6.6-1.4-10s1.5-6.8,1.3-10.2c-0.3-4.2-2.3-8.1-5.5-10.8
				C39.3,1,35,0.1,31,0l0,0h-0.1h-0.1l0,0c-4.1,0-8.3,0.9-11.5,3.4C16,6.1,13.9,10,13.6,14.2c-0.2,3.4,0.7,6.8,1.2,10.2
				s0.4,7.1-1.5,10c-0.9,1.2-1.9,2.3-3,3.3c-4.6,5-6.4,12-4.8,18.7c0.7,2.6,1.9,5.1,2.6,7.7s1.1,5.5,0,8c-0.9,1.7-2.1,3.3-3.4,4.7
				c-4.5,5.6-6.5,14-2.6,20.1c1.7,2.4,3.8,4.3,6.3,5.8c3.8,2.5,7.9,4.3,12.3,5.3c1.9,0.6,3.9,0.7,5.8,0.3c1.2-0.2,2.4-0.3,3.6-0.1
				c1.2-0.1,2.4,0,3.6,0.2c1.9,0.4,3.9,0.3,5.9-0.2c4.4-1,8.6-2.7,12.4-5.2c2.5-1.4,4.7-3.4,6.4-5.7C62.5,91.2,60.6,82.8,56.1,77.1z
				"/>
			<path id="Path_8679" class="st3" d="M32.4,96.2c3.7-4.9,18.8-25,18.8-25L32.3,91.5l-0.7-39.7c2.8-3.8,14.1-18.8,14.1-18.8
				L31.5,48.1l-0.4-24.1c1.2-1.6,10.2-13.6,10.2-13.6l-10.3,11l-0.3-17l-0.3,21.8l-9.8-10.8c0,0,7.9,10.7,9.8,13.3L30,53.3L16,37.9
				c0,0,11.3,15.4,14,19.1l-0.6,40.3l-19.2-21c0,0,17.1,23.4,19.1,26l-0.1,5.9h0v6.5h3.4v-6.5h0L32.4,96.2z"/>
			<path id="Path_8680" class="st1" d="M15.9,114.7h30l-5.6,23.7H21.6L15.9,114.7z"/>
			
				<linearGradient id="Rectangle_4284_00000039845408401340778270000012387811113515806338_" gradientUnits="userSpaceOnUse" x1="-501.8884" y1="264.131" x2="-502.4184" y2="272.969" gradientTransform="matrix(29.977 0 0 -1.798 15083.9629 596.6589)">
				<stop  offset="0" style="stop-color:#6443D7"/>
				<stop  offset="1" style="stop-color:#AC5DF9"/>
			</linearGradient>
			
				<rect id="Rectangle_4284" x="15.9" y="112.9" style="fill:url(#Rectangle_4284_00000039845408401340778270000012387811113515806338_);" width="30" height="1.8"/>
			<g>
				<path d="M421.9-58.9c-0.4,0.5-1,0.9-1.5,0.9c-1.1,0-1.8-0.9-1.8-1.8c0-0.7,0.3-1.2,0.9-1.7c0.5-0.4,1-0.5,1.3-0.5h0
					c0.4,0,0.6,0.1,0.8,0.2c0.1,0.1,0.1,0.2,0.1,0.3c0,0.2-0.2,0.4-0.3,0.4c-0.1,0-0.1,0-0.2-0.1c-0.3-0.3-0.6-0.4-0.9-0.4
					c-0.5,0-1,0.4-1,1.3c0,1.2,0.9,1.6,1.3,1.6c0.4,0,0.7-0.1,1-0.5L421.9-58.9z"/>
				<path d="M424.2-63.6c1.3,0,1.8,1.4,1.8,2.8c0,1.2-0.5,2.8-1.8,2.8s-1.8-1.4-1.8-2.8C422.3-62.1,422.8-63.6,424.2-63.6
					L424.2-63.6z M424.1-63.3c-0.8,0-1,1.3-1,2.4c0,1.2,0.2,2.5,1,2.5c0.8,0,0.9-1.3,0.9-2.5C425.1-62,424.9-63.3,424.1-63.3
					L424.1-63.3z"/>
				<path d="M427.2-58.2v-0.2c0.8-0.1,0.8-0.1,0.8-0.8v-3.2c0-0.4,0-0.5-0.4-0.5l-0.5,0v-0.2c0.6-0.1,1.1-0.3,1.6-0.4v4.4
					c0,0.6,0.1,0.7,0.8,0.8v0.2H427.2z"/>
				<path d="M434.5-63.4c-0.8,1.7-1.7,3.5-2.5,5.2l-0.7,0.1l-0.1-0.1c0.9-1.4,1.9-3.2,2.6-4.6H432c-0.6,0-0.6,0.1-0.9,0.6h-0.3
					c0.1-0.5,0.1-1,0.2-1.3L434.5-63.4L434.5-63.4z"/>
				<path d="M438.6-59.3c-0.1,0.4-0.2,0.8-0.3,1.2H435v-0.2c0.5-0.5,1-0.9,1.4-1.4c0.5-0.6,1.1-1.3,1.1-2c0-0.7-0.4-1.1-1-1.1
					c-0.6,0-1,0.5-1.2,0.8l-0.2-0.2l0.5-0.7c0.3-0.3,0.7-0.5,1.2-0.5c0.8,0,1.5,0.6,1.5,1.5c0,0.7-0.3,1.2-1.2,2.1l-1.2,1.2h1.6
					c0.5,0,0.6,0,0.9-0.6L438.6-59.3z"/>
				<path d="M443.5-58.4c-0.2,0-0.9,0.1-1.4,0.3v-0.6l-0.5,0.3c-0.3,0.2-0.6,0.2-0.7,0.2c-0.7,0-1.7-0.6-1.7-1.8
					c0-1.2,1.1-2.1,2.3-2.1c0.1,0,0.4,0,0.6,0.1v-1.2c0-0.6-0.1-0.6-0.7-0.6v-0.2c0.5-0.1,1.1-0.2,1.4-0.3v5.1
					c0,0.5,0.1,0.5,0.4,0.5l0.2,0V-58.4z M442.1-61.2c-0.2-0.3-0.6-0.4-0.9-0.4c-0.4,0-1.1,0.3-1.1,1.6c0,1,0.7,1.5,1.2,1.5
					c0.3,0,0.6-0.1,0.8-0.3V-61.2z"/>
				<path d="M443.6-58.2v-6h4.3v6H443.6z M444.1-59l1.4-2.2l-1.4-2.2V-59z M444.3-63.7l1.4,2.2l1.5-2.2H444.3z M447.2-58.6l-1.5-2.2
					l-1.4,2.2H447.2z M447.5-63.3l-1.4,2.2l1.4,2.2V-63.3z"/>
			</g>
		</g>
		<g id="Group_9299" transform="translate(265.661 49.281)">
			<g id="Group_9298" transform="translate(0 0)">
				<path id="Path_8791" class="st2" d="M36,0h190.9c19.9,0,35.9,16.1,35.9,36v415.8c0,19.9-16.1,36-36,36H36
					c-19.9,0-35.9-16.1-36-35.9V36C0,16.1,16.1,0,36,0z"/>
				<g id="Group_9297" transform="translate(12.781 30.16)">
					
						<linearGradient id="Path_8681_00000091002232958625803810000009389253213222184838_" gradientUnits="userSpaceOnUse" x1="-795.7458" y1="733.808" x2="-795.7458" y2="735.31" gradientTransform="matrix(236.776 0 0 -434.406 188531.9062 319266.2812)">
						<stop  offset="0" style="stop-color:#E3E3E3"/>
						<stop  offset="0.999" style="stop-color:#F1F9FE"/>
						<stop  offset="1" style="stop-color:#F1F9FE"/>
					</linearGradient>
					<path id="Path_8681" style="fill:url(#Path_8681_00000091002232958625803810000009389253213222184838_);" d="M236.8,10.2v413.5
						c0,5.9-4.8,10.8-10.8,10.8c0,0,0,0,0,0H10.8c-5.9,0-10.8-4.8-10.8-10.8c0,0,0,0,0,0V10.2C0,4.5,4.5,0,10.2,0h216.5
						C232.2,0,236.8,4.5,236.8,10.2z"/>
					<g id="Group_9296" transform="translate(0 4.5)">
						<g>
							<defs>
								<path id="SVGID_1_" d="M236.8,10.2v409c0,5.9-4.8,10.8-10.8,10.8c0,0,0,0,0,0H10.8c-5.9,0-10.8-4.8-10.8-10.8c0,0,0,0,0,0
									v-409C0,4.5,4.5,0,10.2,0h216.5C232.2,0,236.8,4.5,236.8,10.2z"/>
							</defs>
							<clipPath id="SVGID_00000110468151412400662820000013085248953468791940_">
								<use xlink:href="#SVGID_1_"  style="overflow:visible;"/>
							</clipPath>
							<g id="Group_9295" style="clip-path:url(#SVGID_00000110468151412400662820000013085248953468791940_);">
								<g id="Group_9294" transform="translate(-86.203 -53.341)">
									<g id="Group_9293" transform="translate(71.364 388.452)">
										<path id="Path_8682" class="st5" d="M0,12.3c0-0.4,0-0.8,0.1-1.1c1-7,9.1-11.9,18-11L279,26.2c9,0.9,15.4,7.3,14.4,14.3
											s-9.1,11.9-18,11L14.5,25.4C6.1,24.6-0.2,18.8,0,12.3z"/>
									</g>
									<path id="Path_8683" class="st5" d="M205.9,325.1l-0.9,58.5c0,2.3-1.8,4.3-4.2,4.3c-0.2,0-0.3,0-0.5,0l-78.1-9.9
										c-2.1-0.3-3.7-2.2-3.7-4.4V325c-0.1-2.4,1.8-4.3,4.2-4.4h79C204.1,320.7,205.9,322.6,205.9,325.1
										C205.9,325,205.9,325,205.9,325.1z"/>
									<path id="Path_8684" class="st5" d="M346.8,450.6l-1.4-1.9l0,0l-1.4-1.9c0.3-0.3,0.8-0.4,1.2-0.5
										c-5,0.1-177.1-16.5-267.4-25.3l-0.4,4.8c0.7,0.1,67.5,6.5,133.6,12.9c38.8,3.7,69.8,6.6,92,8.7c13.2,1.2,23.5,2.2,30.5,2.8
										C346,451.3,346,451.3,346.8,450.6z"/>
									<path id="Path_8685" class="st5" d="M303.8,401.2c0.3-0.3,0.5-0.7,0.5-1.1l2.2-69.6l10.5,1.2c1.6,0.1,3-1,3.1-2.6
										c0,0,0,0,0,0c0.2-1.6-0.9-3.1-2.5-3.3l-68.8-7.7c-0.8-0.1-1.5-0.4-2.1-0.8l-4.8-3.4c0.3-1.2,0.5-2.4,0.5-3.6
										c0-1.8-0.4-3.6-1.1-5.2l14-12.5c0.1-0.1,0.2-0.2,0.3-0.3l26,3.5c0.1,0,0.1,0,0.2,0h39.8c0.8-0.1,1.5-0.8,1.4-1.6
										c0-0.8-0.7-1.4-1.4-1.4h-39.7l-24-3.3l33.6-47.7l23.4,19.9c1.6,1.4,4,1.2,5.4-0.4c0.1-0.1,0.1-0.2,0.2-0.2
										c1.4-1.8,1.1-4.4-0.6-6l-23.6-20.1l23.2-32.9c0.8-1.2,0.6-2.9-0.5-3.8c-1.1-0.9-2.6-0.7-3.5,0.4c0,0-0.1,0.1-0.1,0.2
										l-8.1,11.5l-70.5-59.6l16.9-23.6l98.1,83.2c1,0.9,2.6,0.8,3.5-0.3c0-0.1,0.1-0.1,0.1-0.2c0.9-1.2,0.7-2.9-0.4-3.8
										l-98.2-83.3L272,101l73.7,60.5c1.1,0.9,2.6,0.7,3.5-0.3c0-0.1,0.1-0.1,0.1-0.2c0.9-1.2,0.7-2.9-0.5-3.8L273.1,95
										c-0.5-0.4-1.2-0.6-1.9-0.5c-0.7,0.1-1.3,0.5-1.7,1.1l-52.1,72.7L194,157l70.4-101.6c2.7-4,11.8-14.8,20.9-16
										c3.9-0.5,7.5,0.8,10.8,3.9c1.6,1.5,4,1.4,5.4-0.2c0.1-0.1,0.1-0.2,0.2-0.2c1.4-1.8,1.3-4.4-0.4-6c-5.1-4.7-10.9-6.7-17-5.9
										c-14.5,1.8-26,18.7-26.5,19.4l-63.6,91.8L162,117c-1.1-1-13.7-12.4-27.1-23.8C106,68.7,101.6,67.9,100,67.6
										c-7.2-1.3-28.7-0.5-36.7-0.2l1-61.2L79.9,8l-1.8,48.8c-0.1,1.6,1.1,3,2.7,3.1c1.6,0,2.9-1.2,2.9-2.8c0,0,0,0,0,0l1.9-51.6
										c0.1-1.5-1-2.9-2.5-3.1L61.9,0c-0.1,0-0.2,0-0.3,0c-0.7,0-1.4,0.3-1.9,0.7c-0.6,0.6-0.9,1.3-0.9,2.2l-1.1,67.6
										c0,0.8,0.3,1.6,0.8,2.2c0.5,0.6,1.3,0.9,2.1,0.8c0.3,0,30.3-1.5,38.5,0c1.1,0.2,6.6,2.5,32.3,24.3
										c11.1,9.4,21.6,18.8,25.5,22.3l-8.2,19.2l-40.7,53.7l-32.4-25.6c-0.2-0.2-0.4-0.4-0.6-0.6l-8.2-10.3
										c1.1-1.5,1.6-3.2,1.6-5.1c0-0.5-0.1-1.1-0.1-1.6l14.7-7.8l24.7,20.4c0.7,0.6,1.8,0.5,2.4-0.2c0,0,0.1-0.1,0.1-0.1
										c0.6-0.8,0.5-2-0.3-2.7l-23.3-19.3l14.7-7.8c0.4,0.7,1,1.3,1.7,1.8l13.7,10.5c1.6,1.2,3.6,1.7,5.6,1.3
										c2-0.5,3.7-1.7,4.6-3.5c1.9-3.3,1-7.5-1.9-9.8l-19.6-15.3c0,0-0.1-0.1-0.1-0.1l3.3-22.3l26.7,24c0.8,0.7,2,0.7,2.7-0.1
										c0,0,0.1-0.1,0.1-0.1c0.7-0.9,0.6-2.2-0.2-3l-31.3-28.2c-1.2-1.1-2.8-1.7-4.4-1.8L66,84.2c-0.1,0-0.2,0-0.3,0
										c-1.9,0-3.7,0.8-5,2.1c-1.4,1.5-2.3,3.5-2.2,5.5v51.6c-1.2,0.3-2.3,0.9-3.2,1.8l-6-4.8c-0.3-0.2-0.7-0.4-1-0.4L8,138.7H8
										c-1.1,0.1-1.9,1-1.8,2c0.1,1,0.8,1.7,1.7,1.8l39.6,1.3l5.6,4.5c-0.4,1-0.6,2.1-0.6,3.2c0,2.1,0.7,4.1,2.1,5.7l-2.2,3.4
										c-0.7,1.1-1.1,2.3-1.2,3.5l-0.1,0.6l-39-1.4h0c-0.6,0-1,0.5-1,1.1c0,0.5,0.4,0.9,1,1l38.8,1.4l-2,19.7l-41-1.4h0
										c-0.6,0-1,0.5-1,1.1c0,0.5,0.4,0.9,1,1l40.8,1.4l-1.7,16.5l-45-1.6l4-47.1c0.1-0.6-0.3-1.1-0.9-1.2c0,0-0.1,0-0.1,0
										c-0.5,0-1,0.4-1,1L0,204.5c0,0.3,0.1,0.6,0.2,0.8c0.2,0.2,0.4,0.3,0.7,0.4l45.9,1.6l-0.8,7.8c-0.1,1.1,0.6,2.2,1.8,2.3
										c1.1,0.1,2.1-0.7,2.2-1.9c0,0,0,0,0,0l5.1-50.9c0.1-0.6,0.2-1.1,0.5-1.6l2.3-3.5c1.9,0.6,4,0.5,5.8-0.5l8.3,10.4
										c0.1,0.1,0.1,0.1,0.2,0.2l-2.3,19.2c0,0,0,0.1,0,0.1v29.5c0,0.6,0.4,1,1,1s1-0.4,1-1V189l2.1-17.8l31.5,24.9l-13.1,17.3
										c-1,1.3-0.8,3.1,0.4,4.2c1.1,1,2.8,0.8,3.8-0.3c0-0.1,0.1-0.1,0.1-0.2l13.3-17.5l21.7,17.2c0.7,0.6,1.8,0.5,2.4-0.3
										c0,0,0.1-0.1,0.1-0.1c0.6-0.8,0.4-2-0.4-2.7l-7.6-6l39.3-52.3l11.8,9.5c-6.2,7.8-15.6,19.8-25,32.2
										c-33.1,43.7-34.1,50.3-34.5,52.9c-1.7,11-0.7,43.5-0.2,55.6l-82.6-1.5l2.4-23.7l65.9,2.8c2.3,0,4.2-2,4.2-4.3
										c0-2.2-1.7-3.9-3.8-4.1L34,271.8c-2.2,0-4,1.6-4.1,3.8l-3.2,32.2c0,0.1,0,0.3,0,0.4c0,1,0.4,2,1,2.8
										c0.7,0.9,1.8,1.4,2.9,1.4l91.3,1.7c1.1,0,2.2-0.5,2.9-1.3c0.8-0.9,1.2-2,1.1-3.2c0-0.5-2-45.9,0-58.3
										c0.3-1.6,3.4-10,32.8-48.9c12.7-16.8,25.4-32.7,30.2-38.6l25.9,12.5l72.5,61.8l-34.6,49.2c-0.2,0.3-0.5,0.6-0.8,0.9
										l-13.9,12.5c-1.9-1.6-4.3-2.5-6.8-2.5c-0.7,0-1.4,0.1-2.1,0.2l-10.5-22.3l27.5-37.4c0.9-1.2,0.7-2.9-0.4-3.8
										c-1-0.9-2.6-0.7-3.5,0.3c0,0.1-0.1,0.1-0.1,0.2l-26,35.3l-10.5-22.3c0.9-0.7,1.7-1.5,2.4-2.5l14.2-20.8
										c1.7-2.5,2.3-5.5,1.7-8.4c-0.5-2.9-2.3-5.4-4.7-7c-4.5-2.8-10.4-1.5-13.3,2.9l-20.6,29.8c0,0.1-0.1,0.1-0.1,0.2l-30.1-5.1
										l32.5-40.5c1-1.3,0.9-3.2-0.3-4.3c-1.1-1-2.9-0.9-3.9,0.2c-0.1,0.1-0.1,0.1-0.1,0.2l-38.1,47.5c-1.5,1.9-2.4,4.2-2.5,6.6
										l-2.2,54.5c0,0.2,0,0.3,0,0.5c0,2.8,1,5.5,2.9,7.6c1.9,2.1,4.6,3.4,7.5,3.4h69.6c0.4,1.8,1.3,3.5,2.4,4.9l-6.5,9.1
										c-0.3,0.5-0.5,1-0.5,1.6l-1.8,60.8c0,0,0,0.1,0,0.1c-0.1,1.4,1,2.6,2.4,2.7c1.4,0.1,2.6-1,2.7-2.4c0-0.1,0-0.2,0-0.2
										l1.8-60l6.1-8.5c1.3,0.6,2.8,0.9,4.3,0.9c2.9,0,5.6-1.2,7.6-3.2l4.6,3.3c1.4,1,3,1.6,4.7,1.8l0.8,0.1l-1.9,59.1
										c0,0,0,0,0,0.1c0,0.8,0.6,1.5,1.4,1.5c0.8,0,1.5-0.6,1.5-1.4c0,0,0-0.1,0-0.1l1.9-58.9l26.6,3l-1.9,62.1c0,0,0,0,0,0.1
										c-0.1,0.8,0.5,1.5,1.3,1.5c0.8,0.1,1.5-0.5,1.5-1.3c0,0,0-0.1,0-0.1l1.9-61.9l22.3,2.5l-2.2,68.3l-63.5-6.1
										c-0.8-0.1-1.5,0.6-1.6,1.4c0,0,0,0,0,0c0,0,0,0.1,0,0.1c0,0.8,0.5,1.4,1.3,1.5l65,6.2C303.2,401.6,303.5,401.5,303.8,401.2
										z M122.6,135.8c1.4,1.2,1.8,3.2,0.9,4.8c-0.5,0.9-1.3,1.5-2.3,1.7c-1,0.2-2,0-2.7-0.6l-13.7-10.5c-1.1-0.8-1.6-2.2-1.4-3.5
										l0.9-6L122.6,135.8z M101.8,90.1c0.7,0,1.4,0.3,2,0.8l1.4,1.3L99.9,127c-0.1,0.6-0.1,1.2-0.1,1.8l-15,7.9l1-47.4
										L101.8,90.1z M62.5,143.5V91.9c0-0.9,0.4-1.8,1-2.5c0.6-0.6,1.5-1,2.4-1l16.4,0.7l-1,49.5l-14.7,7.8
										C65.6,145.1,64.1,144,62.5,143.5L62.5,143.5z M55.9,151.8c0.1-2.5,2.3-4.4,4.7-4.2c2.5,0.1,4.4,2.3,4.2,4.7
										c-0.1,2.4-2.1,4.2-4.5,4.2C57.9,156.4,55.9,154.3,55.9,151.8L55.9,151.8z M123.5,205.5l-11.2-8.8l39.6-52.2l10.9,8.8
										L123.5,205.5z M153.9,141.2l7.4-17.3l29.6,23l-6.3,9.1c-0.4,0.5-2.2,2.7-4.9,6.1L153.9,141.2z M221.6,171.3l11.9-16.5
										l70.6,59.7l-11.9,16.9L221.6,171.3z M210,215.7c1.4-2.2,4.3-2.8,6.5-1.4c1.2,0.8,2.1,2,2.3,3.4c0.1,0.4,0.1,0.7,0.1,1.1
										c0,1.1-0.3,2.2-0.9,3l-14.2,20.8c-1,1.6-2.9,2.4-4.8,2.1l-8.1-1.4L210,215.7z M147.3,271.4l1-24.1c0-1.1,0.4-2.1,1.1-3
										l1.7-2.1l47,7.9c0.8,0.1,1.6,0.2,2.5,0.1l10.7,22.7L147.3,271.4z M150.8,306.9c-1.3,0-2.5-0.6-3.4-1.5
										c-0.9-1-1.4-2.3-1.3-3.6l1-24.9l66.8,1.5l10.5,22.2c-2,1.6-3.3,3.8-4,6.3L150.8,306.9z M225.2,310c0.2-3.5,3.2-6.2,6.8-6
										s6.2,3.2,6,6.8c-0.2,3.4-3,6-6.4,6C227.9,316.7,225.1,313.6,225.2,310L225.2,310z"/>
									<path id="Path_8686" class="st5" d="M215.3,100c-5.4,7.7-17.2,24.3-21.2,30c-0.7,1-2.1,1.3-3.1,0.6c0,0-0.1-0.1-0.1-0.1
										l-39-30c-1.1-0.8-1.3-2.4-0.5-3.5c0.4-0.6,1.1-0.9,1.8-1h60.2c1.4,0.1,2.4,1.2,2.3,2.6C215.8,99.2,215.6,99.6,215.3,100z"
										/>
								</g>
							</g>
						</g>
					</g>
				</g>
				<circle id="Ellipse_720" class="st5" cx="131.7" cy="14.5" r="4"/>
			</g>
			<path id="Path_8688" class="st1" d="M82.8,149.2c-11.5,0-20.7,9.3-20.7,20.7l0,0c0,11.5,14.4,41.4,20.7,41.4
				c6.4,0,20.7-30,20.7-41.4C103.6,158.5,94.3,149.2,82.8,149.2L82.8,149.2z M82.8,183.7c-6.8,0-12.4-5.5-12.4-12.4S76,159,82.8,159
				c6.8,0,12.4,5.5,12.4,12.4C95.2,178.2,89.7,183.7,82.8,183.7L82.8,183.7z"/>
		</g>
		<g id="Group_9309" transform="translate(367.089 470.744)">
			<g id="Group_9302" transform="translate(129.86 33.932)">
				<g id="Group_9300">
					<path id="Path_8689" class="st9" d="M27.6,32.7L0,31.6V0h27.6V32.7z"/>
					<path id="Path_8690" class="st10" d="M38.9,30.8l-11.2,1.8V0h11.2V30.8z"/>
					<path id="Path_8691" class="st11" d="M17.1,32.3l-4.3-0.2V0h4.3V32.3z"/>
				</g>
				<rect id="Rectangle_4286" x="23.2" y="1.6" class="st12" width="2.9" height="10.1"/>
				<g id="Group_9301" transform="translate(0.663 28.821)">
					<path id="Path_8692" class="st11" d="M0,1.8l1.8,0.1V0.1L0,0V1.8z"/>
					<path id="Path_8693" class="st11" d="M2.7,1.9L4.5,2V0.2L2.7,0.1V1.9z"/>
					<path id="Path_8694" class="st11" d="M5.5,0.3v1.8l1.8,0.1V0.3L5.5,0.3z"/>
				</g>
			</g>
			<g id="Group_9305" transform="translate(47.689)">
				<g id="Group_9303">
					<path id="Path_8695" class="st9" d="M23.3,67.9l57.4-2.3V0H23.3V67.9z"/>
					<path id="Path_8696" class="st10" d="M0,64l23.3,3.8V0H0V64z"/>
					<path id="Path_8697" class="st11" d="M45.3,67l8.8-0.3V0h-8.8V67z"/>
				</g>
				<rect id="Rectangle_4287" x="26.4" y="3.3" class="st12" width="6.1" height="21"/>
				<g id="Group_9304" transform="translate(64.224 59.865)">
					<path id="Path_8698" class="st11" d="M15.1,3.7l-3.8,0.2V0.2L15.1,0V3.7z"/>
					<path id="Path_8699" class="st11" d="M9.5,4L5.8,4.2V0.4l3.8-0.2V4z"/>
					<path id="Path_8700" class="st11" d="M3.8,0.5v3.7L0,4.5V0.7L3.8,0.5z"/>
				</g>
			</g>
			<g id="Group_9308" transform="translate(0 28.617)">
				<g id="Group_9306">
					<path id="Path_8701" class="st9" d="M32,37.8L0,36.5V0h32V37.8z"/>
					<path id="Path_8702" class="st10" d="M44.9,35.6l-13,2.1V0h13V35.6z"/>
					<path id="Path_8703" class="st11" d="M19.7,37.3l-4.9-0.2V0h4.9V37.3z"/>
				</g>
				<rect id="Rectangle_4288" x="26.9" y="1.8" class="st12" width="3.4" height="11.7"/>
				<g id="Group_9307" transform="translate(0.767 33.315)">
					<path id="Path_8704" class="st11" d="M0,2.1l2.1,0.1V0.1L0,0V2.1z"/>
					<path id="Path_8705" class="st11" d="M3.1,2.2l2.1,0.1V0.2L3.1,0.1V2.2z"/>
					<path id="Path_8706" class="st11" d="M6.3,0.3v2.1l2.1,0.1V0.4L6.3,0.3z"/>
				</g>
			</g>
		</g>
		<g id="Group_9316" transform="translate(115.389 49.25)">
			<g id="Group_9312" transform="translate(0 105.591)">
				<g id="Group_9310" transform="translate(85.89 210.719)">
					<path id="Path_8707" class="st13" d="M3.3,2.5L4,0l5.7,1.9L8.6,4.3L3.3,2.5z"/>
					
						<linearGradient id="Path_8708_00000070110988350371799500000004066906865108209557_" gradientUnits="userSpaceOnUse" x1="-695.7114" y1="382.2975" x2="-695.7303" y2="383.5245" gradientTransform="matrix(21.3542 0 0 -13.1519 14882.3477 5648.2715)">
						<stop  offset="0" style="stop-color:#3A3C63"/>
						<stop  offset="1" style="stop-color:#40447B"/>
					</linearGradient>
					<path id="Path_8708" style="fill:url(#Path_8708_00000070110988350371799500000004066906865108209557_);" d="M10.6,4.9
						c0.1,1,0.4,2,0.9,2.9c1,1.3,2.2,2.4,3.7,3.2c2.1,1.3,6,1.5,6.2,2.2c0.2,0.8-0.3,1.6-1,1.8c-0.1,0-0.2,0-0.3,0
						c0,0-3.5,0.7-5.4,0C8.9,13.3,0.1,10.1,0,10c-0.1-0.3,2.7-7.7,2.7-7.7L10.6,4.9z"/>
				</g>
				<path id="Path_8709" class="st13" d="M156.7,18c0.1-0.6,0.4-1.2,0.9-1.3c0.6,0,0.9,0.7,0.9,1.3c0,0.2,0,0.4,0,0.5
					c0.2,0.4,0.8,0.3,1.2,0c0.6-0.4,1.2-1,1.7-1.6c0.3-0.5,0.7-1,1.1-1.4c0.4-0.5,1-0.7,1.6-0.8c1.1,0,1.8,1.3,2,2.5
					c0.2,1.9-0.4,3.9-1.7,5.4c-0.6,0.9-1.5,1.5-2.5,1.9c-0.5,0.2-1,0.2-1.4,0.4c-0.7,0.3-1.3,0.7-2,1.2c-0.2,0.1-0.7,0.9-0.8,0.9
					c-0.2-0.1-0.5-0.2-0.6-0.3c-0.8-0.5-1.6-1.2-2.3-1.9c-0.9-1.2,0.8-1.9,1.2-3.1C156.3,20.5,156.6,19.3,156.7,18z"/>
				<path id="Path_8710" class="st13" d="M56.3,6.6c0.2-0.5,0.3-1.3-0.2-1.6c-0.5-0.3-1.2,0.2-1.4,0.7c-0.1,0.2-0.1,0.3-0.3,0.5
					c-0.4,0.3-0.8-0.2-1-0.6c-0.3-0.7-0.6-1.5-0.7-2.2c-0.1-0.6-0.1-1.2-0.3-1.8c-0.1-0.6-0.5-1.1-1-1.4c-1-0.5-2.3,0.2-3,1.2
					c-1.1,1.6-1.5,3.6-1.2,5.5c0.1,1.1,0.5,2.1,1.2,2.9c0.3,0.4,0.7,0.7,1,1c0.4,0.6,0.8,1.3,1.1,2c0.1,0.2,0.1,1.1,0.3,1.2
					c0.2,0.1,0.5,0.1,0.7,0.1c1,0,2-0.2,2.9-0.5c1.3-0.6,0.3-2.1,0.5-3.3C55.4,9,55.8,7.8,56.3,6.6z"/>
				<path id="Path_8711" class="st15" d="M92.7,36.3c0.3,1.4,0.9,2.8,1.6,4c0.3,0.4,0.5,0.9,0.8,1.4c0.3,0.7,0.3,3.2,1.1,3.3
					c0.5,0.1,0.5-1.9,0.8-2.3c0.3-0.4,0.6-0.9,0.7-1.4c0.8-2.5,1.1-5.3,2.9-7.2c1-1,2.4-1.6,3.9-1.7c1.6,0,2.9,1.1,4.4,1
					c3.1-0.4,5.7-2.3,7.2-5c1-1.9,1-4.2,0.1-6.1c-0.9-1.9-2.8-3.3-5-3.5c-0.5-0.1-1,0-1.4,0.2c-0.3,0.2-0.6,0.5-0.9,0.7
					c-1.3,1.3-2.9,2.2-4.6,2.8c-2.2,0.6-4.4,1-6.6,1.3c-1.3,0.2-2.5,0.8-3.4,1.7c-1.1,1.3-1.7,4.1-1.8,6.1
					C92.3,33.3,92.3,34.8,92.7,36.3z"/>
				<g id="Group_9311" transform="translate(0 122.994)">
					<path id="Path_8712" class="st13" d="M14.8,4.4l2.3,0.9l-2.7,5.4l-2.1-1.3L14.8,4.4z"/>
					
						<linearGradient id="Path_8713_00000033361471733851810610000015218118510084161940_" gradientUnits="userSpaceOnUse" x1="-591.4306" y1="251.9794" x2="-591.4566" y2="252.7594" gradientTransform="matrix(15.1172 0 0 -20.6624 9085.2969 10834.1221)">
						<stop  offset="0" style="stop-color:#3A3C63"/>
						<stop  offset="1" style="stop-color:#40447B"/>
					</linearGradient>
					<path id="Path_8713" style="fill:url(#Path_8713_00000033361471733851810610000015218118510084161940_);" d="M11.4,11.2
						c-1,0-2.1,0.1-3,0.5c-1.5,0.8-2.7,1.9-3.7,3.2c-1.6,1.9-2.3,5.8-3,5.8c-0.8,0.1-1.6-0.5-1.7-1.3c0-0.1,0-0.2,0-0.3
						c0,0-0.2-3.5,0.7-5.4C3.4,8.3,7.7,0.1,7.9,0c0.3-0.1,7.2,3.7,7.2,3.7L11.4,11.2z"/>
				</g>
				<path id="Path_8714" class="st1" d="M119,134.2c-2-4.1-19.5-28-19.5-28l-27.8-4.8l-6-0.9l-7.1-2.9l-8.1,34.5
					c-0.1,1.4-1.4,2.4-2.7,2.2c0,0,0,0,0,0l-1.5-0.3l-29.2-5.7l-3,5.6l36.3,20.8c4.4,1.2,8-1.4,11.2-4.9l18.6-21.7
					c0.5-0.6,1-1.1,1.7-1.5c1.1-0.6,2-0.2,3.2,1.1l9.8,10.7l4.9,5.4c0.6,0.9,1.2,1.3,1.1,2.1l-11.5,64.9l6.4,2.4
					C95.8,213.2,128.1,153.3,119,134.2z"/>
				<path id="Path_8715" class="st17" d="M50.5,135.3c2.7-1.9,3.7-6.8,5.5-12.6s6.7-14.8,6.7-14.8l3.4-9.6l-7.5-0.7l-8.1,34.5
					c-0.1,1.4-1.4,2.4-2.7,2.2c0,0,0,0,0,0l-1.5-0.3C47.4,135.2,48.9,136.4,50.5,135.3z"/>
				<path id="Path_8716" class="st13" d="M106.1,47.3l-2.2,7.5l-8.8-3.1l1.3-11.6l9.2,2.7L106.1,47.3z"/>
				<path id="Path_8717" class="st18" d="M97.4,42.1c0,0,0.8,5.9,2.7,6.9s5.2,0.1,5.2,0.1l0.8-1.8c-1.1,0.5-2.3,0.6-3.4,0.5
					c-1.4-0.4-1.2-0.3-1.4-0.4l-0.1-0.1C101.2,47.3,98.8,46.5,97.4,42.1z"/>
				<path id="Path_8718" class="st13" d="M112.1,32.3c0.7-2.1-0.3-2.7-1.6-2.9c-1.3-0.2-2.9,0-4-0.2c-1.1-0.2-2.2-0.3-3.4-0.4
					c-1.9-0.1-2.8,1.7-3.1,2.9l0,0.1c-0.3,1.2-0.6,3.9-1.1,4.8c-0.5,0.9-1.2-3.4-2.8-3.9c-0.4-0.1-0.7-0.1-1.1-0.1
					c-0.8,0.2-1.4,0.9-1.5,1.7c-0.1,1.1,0.2,2.3,0.9,3.1c0.6,0.9,1.4,1.7,2,2.6c1.2,1.8,1.6,4.3,3,5.9c1.7,1.8,4.4,2.3,6.7,1.3
					c2.3-1.1,4-3.2,4.6-5.7C111.7,38.6,111.1,35.3,112.1,32.3z"/>
				<path id="Path_8719" class="st18" d="M105.3,30.5c1.8-0.1,3.5-0.4,5.2-1.1c-1.3-0.2-2.9,0-4-0.2c-1.1-0.2-2.2-0.3-3.4-0.4
					c-1.9-0.1-2.8,1.7-3.1,2.9l0,0.1C100.8,30.9,102.7,30.6,105.3,30.5z"/>
				<path id="Path_8720" class="st17" d="M92,112.2c-1,3.8-10.1,14.4-10.1,14.4l0,0c1.1-0.6,2-0.2,3.2,1.1l14.2,15.5
					c-1.5-2.2-7.2-11.8-8.9-14C87.7,125.5,91.2,119.9,92,112.2z"/>
				<path id="Path_8721" class="st2" d="M109.2,48.8l15.1-3.5c2.7-0.6,5.1-1.8,7.3-3.5l23.1-18.3l4.5,3.7l-22.6,25.2
					c-1.4,1.6-3.1,2.9-5,3.9l-19.4,10.5l-11.3,30c-0.1,0.2-0.2,0.4-0.2,0.7c-0.4,1.4-0.4,2.9,0,4.4l1.1,4.2
					c-0.2,2.2-4.1,1.2-6.3,0.9c-10.8-0.7-21-5-33-4.4c-2.4-0.3-4.2-2.6-3.8-5c0-0.2,0.1-0.4,0.1-0.7l10.9-37.4L61.8,53
					c-3.3-2.8-5.5-6.5-6.3-10.7L50,12.7l5.5-0.7l7.6,21.4c1.8,5.2,5.9,9.3,11.1,11.2l5.7,2.1l15.1,2.5c0,0,5.5,6.6,8.7,3.9
					c0.7-0.6,1.6-3.2,1.6-3.2L109.2,48.8z"/>
				<path id="Path_8722" class="st17" d="M69.6,59.6l5.3,3.9l-14,25.8L69.6,59.6z"/>
				<path id="Path_8723" class="st17" d="M104.4,52.2c0,0-0.2,2.6-3.5,3s-10.5-6.9-10.5-6.9l4.7,0.8c0,0,3.7,4.5,6.9,4.6
					C103,53.8,104,53.2,104.4,52.2z"/>
			</g>
			<g id="Group_9315" transform="translate(37.736)">
				<g id="Group_9313">
					
						<linearGradient id="Path_8724_00000007392201951463933250000018438893506858141348_" gradientUnits="userSpaceOnUse" x1="-627.7968" y1="763.0572" x2="-626.7968" y2="763.0572" gradientTransform="matrix(108.6 0 0 -120.851 72620.7344 92280.0703)">
						<stop  offset="0" style="stop-color:#DCAD69"/>
						<stop  offset="1" style="stop-color:#E6BD7B"/>
					</linearGradient>
					<path id="Path_8724" style="fill:url(#Path_8724_00000007392201951463933250000018438893506858141348_);" d="M39.4,119.7
						l98.8,4.6L148,11.9L49.6,3.4L39.4,119.7z"/>
					
						<linearGradient id="Path_8725_00000086680452425465196300000002594946739382621824_" gradientUnits="userSpaceOnUse" x1="-571.0263" y1="763.0367" x2="-570.0263" y2="763.0367" gradientTransform="matrix(49.563 0 0 -119.73 32842.0859 91418.2578)">
						<stop  offset="0" style="stop-color:#DCAD69"/>
						<stop  offset="1" style="stop-color:#E6BD7B"/>
					</linearGradient>
					<path id="Path_8725" style="fill:url(#Path_8725_00000086680452425465196300000002594946739382621824_);" d="M0,109.8l39.4,10
						L49.6,3.4L9.6,0L0,109.8z"/>
					
						<linearGradient id="Path_8726_00000164505825773492142620000002369279516751774128_" gradientUnits="userSpaceOnUse" x1="-652.0114" y1="763.5157" x2="-652.0114" y2="762.4948" gradientTransform="matrix(25.226 0 0 -115.507 16537.4727 88191.1484)">
						<stop  offset="0" style="stop-color:#D38732"/>
						<stop  offset="0.995" style="stop-color:#C17529"/>
					</linearGradient>
					<path id="Path_8726" style="fill:url(#Path_8726_00000164505825773492142620000002369279516751774128_);" d="M77.2,121.5
						l15.2,0.7L102.4,8L87.3,6.7L77.2,121.5z"/>
				</g>
				<path id="Path_8727" class="st12" d="M51.2,45.5l10.4,0.9l3.1-35.9L54.4,9.5L51.2,45.5z"/>
				<g id="Group_9314" transform="translate(110.02 113.287)">
					<path id="Path_8728" class="st11" d="M26,7.4l-6.5-0.2l0.6-6.4L26.6,1L26,7.4z"/>
					<path id="Path_8729" class="st11" d="M16.4,7L9.9,6.8l0.6-6.4L17,0.6L16.4,7z"/>
					<path id="Path_8730" class="st11" d="M7.1,0.2L6.5,6.7L0,6.4L0.6,0L7.1,0.2z"/>
				</g>
			</g>
		</g>
		<g id="Group_9334" transform="translate(532.621 306.172)">
			<g id="Group_9319" transform="translate(0 42.798)">
				<g id="Group_9317">
					<path id="Path_8731" class="st9" d="M18.6,54.3l45.9-1.8V0H18.6V54.3z"/>
					<path id="Path_8732" class="st10" d="M0,51.2l18.6,3V0H0V51.2z"/>
					<path id="Path_8733" class="st11" d="M36.2,53.6l7.1-0.3V0h-7.1V53.6z"/>
				</g>
				<rect id="Rectangle_4289" x="21.1" y="2.6" class="st12" width="4.8" height="16.8"/>
				<g id="Group_9318" transform="translate(51.344 47.859)">
					<path id="Path_8734" class="st11" d="M12.1,3l-3,0.1v-3l3-0.1V3z"/>
					<path id="Path_8735" class="st11" d="M7.6,3.2l-3,0.1v-3l3-0.1V3.2z"/>
					<path id="Path_8736" class="st11" d="M3,0.4v3L0,3.6v-3L3,0.4z"/>
				</g>
			</g>
			<g id="Group_9322" transform="translate(5.713 142.183)">
				<g id="Group_9320">
					<path id="Path_8737" class="st9" d="M29.3,85.3l72.2-2.9V0H29.3L29.3,85.3z"/>
					<path id="Path_8738" class="st10" d="M0,80.5l29.3,4.8V0H0V80.5z"/>
					<path id="Path_8739" class="st11" d="M57,84.2l11.1-0.4V0H57V84.2z"/>
				</g>
				<rect id="Rectangle_4290" x="33.2" y="4.2" class="st12" width="7.6" height="26.4"/>
				<g id="Group_9321" transform="translate(80.733 75.254)">
					<path id="Path_8740" class="st11" d="M19,4.7l-4.8,0.2V0.2L19,0V4.7z"/>
					<path id="Path_8741" class="st11" d="M12,5L7.2,5.3V0.5L12,0.3V5z"/>
					<path id="Path_8742" class="st11" d="M4.8,0.7v4.7L0,5.6V0.9L4.8,0.7z"/>
				</g>
			</g>
			<g id="Group_9327" transform="translate(64.395)">
				<g id="Group_9323" transform="translate(82.394 209.565)">
					<path id="Path_8743" class="st13" d="M19.6,2.7L18.9,0l-6.2,2.1l1.1,2.6L19.6,2.7z"/>
					
						<linearGradient id="Path_8744_00000096752297532934742480000013551318351060037297_" gradientUnits="userSpaceOnUse" x1="-1177.082" y1="318.1158" x2="-1177.1" y2="319.3417" gradientTransform="matrix(23.2272 0 0 -14.3043 27338.8906 4018.2329)">
						<stop  offset="0" style="stop-color:#3A3C63"/>
						<stop  offset="1" style="stop-color:#40447B"/>
					</linearGradient>
					<path id="Path_8744" style="fill:url(#Path_8744_00000096752297532934742480000013551318351060037297_);" d="M11.7,5.4
						c-0.1,1.1-0.4,2.2-0.9,3.2c-1,1.5-2.4,2.7-4,3.5c-2.3,1.4-6.6,1.6-6.7,2.4c-0.2,0.9,0.3,1.7,1.1,2c0.1,0,0.2,0,0.3,0
						c0,0,3.8,0.7,5.9,0c6.2-2,15.7-5.4,15.8-5.6c0.1-0.3-2.9-8.4-2.9-8.4L11.7,5.4z"/>
				</g>
				<g id="Group_9324" transform="translate(128.837 204.532)">
					<path id="Path_8745" class="st13" d="M14.4,2.3L12.8,0L7.7,4.1l1.9,2L14.4,2.3z"/>
					
						<linearGradient id="Path_8746_00000038373061360192707790000002283057881007936913_" gradientUnits="userSpaceOnUse" x1="-1220.9749" y1="327.5407" x2="-1220.9958" y2="328.4357" gradientTransform="matrix(20.5891 0 0 -19.5891 25131.0039 5697.7319)">
						<stop  offset="0" style="stop-color:#3A3C63"/>
						<stop  offset="1" style="stop-color:#40447B"/>
					</linearGradient>
					<path id="Path_8746" style="fill:url(#Path_8746_00000038373061360192707790000002283057881007936913_);" d="M7.9,7.5
						c0.3,1.1,0.3,2.2,0.2,3.3c-0.5,1.7-1.4,3.3-2.6,4.6c-1.7,2.1-5.6,3.7-5.5,4.5c0.1,0.9,0.9,1.6,1.7,1.5c0.1,0,0.2,0,0.3,0
						c0,0,3.8-0.6,5.6-2c5.1-4,13-10.4,13-10.7c0-0.3-5.6-6.9-5.6-6.9L7.9,7.5z"/>
				</g>
				<path id="Path_8747" class="st13" d="M8,52.9l-4.1-0.6c-0.5-2.5-1.2-4.9-2-7.2c-0.9-1.8-1.3-1.8-1.4-0.6c-0.2,1.9-0.3,4-0.4,7.1
					C0,53.3,0,55.2,0.1,57c0,0.7,0.6,1.3,1.4,1.2c0,0,0.1,0,0.1,0c0.3-0.1,0.6-0.1,0.9-0.3c1.7-0.7,5.7,0.1,5.7,0.1L8,52.9z"/>
				<path id="Path_8748" class="st1" d="M102.7,97.2c0.1,0.9,5.8,55.4,5.8,55.4c13.2,13.4,23,34.6,34,51.9l-5.6,4.7
					c-20-16.3-42-41.9-50.1-52.5l-9.7-37.3L102.7,97.2z"/>
				<g id="Group_9326" transform="translate(44.35)">
					<path id="Path_8749" class="st15" d="M28.1,19.1c-0.3,1.7-0.9,3.2-1.7,4.7c-0.3,0.5-0.6,1.1-0.8,1.6c-0.3,0.8-1.4,4.3-2.3,4.4
						c-0.6,0.1-1.9,2.1-2.3,1.7s1.7-5.9,1.5-6.4c-1-2.8-3.3-0.1-3.6-8.1c-0.1-1.7-2.9-1.7-4.5-1.7c-1.8,0-3.2,1.4-5,1.3
						c-3.5-0.3-6.7-2.3-8.4-5.4c-1.2-2.2-1.3-4.7-0.4-7c1-2.3,3.1-3.9,5.5-4.2c0.6-0.1,1.1,0,1.6,0.2C8.1,0.4,8.5,0.7,8.8,1
						c1.5,1.4,3.4,2.4,5.4,3c2.5,0.7,5.1,0.8,7.6,1.2c1.5,0.1,2.9,0.8,4,1.8c1.3,1.4,2.1,4.6,2.4,6.9C28.4,15.6,28.4,17.4,28.1,19.1
						z"/>
					<g id="Group_9325" transform="translate(4.555 12.763)">
						<path id="Path_8750" class="st13" d="M7.3,21.5c0.8,0.1,1.7,0,2.5-0.1c0.8-0.1,1.7-0.3,2.5-0.6c1-0.4,2-1,2.8-1.7
							c0.3-0.3,0.5-0.5,0.7-0.8c0.3-0.4,0.6-0.8,0.8-1.2c0.6-1.3,1.3-2.5,2.1-3.7l-1.2,7.1l2.9,6.3L10,28.7L9,26L7.3,21.5L7.3,21.5z
							"/>
						<path id="Path_8751" class="st13" d="M1.7,7.5C1.8,9,1.5,10.6,1,12.1c-0.8,1.5-1.6,2.7-0.6,3.1c1.2,0.3,2.4,0.5,3.7,0.6l0.4-6
							L1.7,7.5z"/>
						<path id="Path_8752" class="st18" d="M7.3,21.5c0.8,0.1,1.7,0,2.5-0.1c0.8-0.1,1.7-0.3,2.5-0.6c1-0.4,2-1,2.8-1.7
							c0.3-0.3,0.5-0.5,0.7-0.8h0c0,0-0.2,1.1-3.4,3.9c-1.3,0.7-2.7,1.3-4.1,1.8L7.3,21.5L7.3,21.5z"/>
						<path id="Path_8753" class="st13" d="M1.2,3.4c-0.6-2.4,0.4-2,2-2.1c1.5-0.1,3.4-0.9,4.6-1C9.1,0.1,10.4,0,11.7,0
							c2.2,0,3.1,2.1,3.4,3.5l0,0.1c0.3,1.3,0.5,4.5,0.9,5.6c0.5,1.1,1.6-3.9,3.4-4.2c0.4-0.1,0.9-0.1,1.3,0
							c0.9,0.3,1.5,1.1,1.6,2.1c0.1,1.3-0.4,2.6-1.3,3.5c-0.8,1-1.8,1.8-2.5,2.8l0,0c-0.8,1.2-1.5,2.4-2.1,3.7
							c-0.2,0.4-0.5,0.8-0.8,1.2c-0.2,0.3-0.5,0.6-0.7,0.8c-0.8,0.7-1.8,1.3-2.8,1.7c-0.8,0.3-1.6,0.5-2.5,0.6
							c-0.8,0.1-1.7,0.2-2.5,0.1C6.1,21.5,5,20.9,4.2,20c-1.3-1.5-1.6-3.7-2.1-5.9C1.3,10.5,2.2,6.9,1.2,3.4z"/>
						<path id="Path_8754" class="st18" d="M9.1,1.8c-3-0.3-8-0.2-5.7-0.5c1.5-0.1,3.1-0.8,4.4-1C9.1,0.1,10.4,0,11.7,0
							c2.2,0,3.1,2.1,3.4,3.5l0,0.1C14.2,2.5,12,2.1,9.1,1.8z"/>
					</g>
				</g>
				<path id="Path_8755" class="st17" d="M103.6,109.5c-0.1,3.9-0.7,12.5-4.8,18.8c-5.5,8.4-13.2,23.8-13.2,23.8l-1.6-6.4
					c4.2-6.9,10-15.8,14.7-21.3C102.1,120.6,103.3,115,103.6,109.5z"/>
				<path id="Path_8756" class="st1" d="M55.8,151.7l18.4-49.5l27.9-8.9c1.2,5.3,1.7,10.7,1.5,16.2c-0.3,5.4-1.5,11.1-4.9,15
					c-4.7,5.5-10.5,14.4-14.7,21.3c-3.4,5.6-5.8,9.9-5.8,9.9c9.4,16.8,16.4,34.7,24.1,53.8l-7.1,2.5c-14.3-17.9-27.3-36.8-38.8-56.6
					C55.6,154.2,55.4,152.9,55.8,151.7z"/>
				<path id="Path_8757" class="st2" d="M6.5,52.6c0,0,27.3,4,32.9,1.5c3-1.3,15-11.5,18.2-14.2c0.1-0.4,0.3-0.8,0.4-1.1
					c1-0.3,1.9-0.8,2.7-1.3c2.2-1.4,4.2-3.2,5.8-5.2c4.6,1.2,9.8,1.9,16.8,9.9c9.6,11.1,17.6,40.8,21,54.7c1,4-0.6,9.8-5.7,8.8
					c-7.9-0.3-14.5,5.3-21.3,8.1c-4.1,1.7-10.7,0.1-8.9-5.5c3.5-11.3-2.6-33.4-8.5-47.6c-7.1,2.4-15.6,5.2-17.4,5.6
					c-5.5,1.2-36.6-7-36.6-7L6.5,52.6z"/>
				<path id="Path_8758" class="st17" d="M59.9,60.8c0,0,5.9-4,6.3-9.5s-1.7-7.5-1.7-7.5s7.6,10.1-2.1,23.4
					C61.2,64.4,59.9,60.8,59.9,60.8z"/>
			</g>
			<g id="Group_9330" transform="translate(5.956 95.517)">
				<g id="Group_9328">
					<path id="Path_8759" class="st9" d="M40.9,48.4L0,46.8V0h40.9V48.4z"/>
					<path id="Path_8760" class="st10" d="M57.5,45.7l-16.6,2.7V0h16.6V45.7z"/>
					<path id="Path_8761" class="st11" d="M25.2,47.8l-6.3-0.2V0h6.3V47.8z"/>
				</g>
				<rect id="Rectangle_4291" x="34.4" y="2.4" class="st12" width="4.3" height="14.9"/>
				<g id="Group_9329" transform="translate(0.982 42.671)">
					<path id="Path_8762" class="st11" d="M0,2.7l2.7,0.1V0.1L0,0V2.7z"/>
					<path id="Path_8763" class="st11" d="M4,2.8L6.7,3V0.3L4,0.2V2.8z"/>
					<path id="Path_8764" class="st11" d="M8.1,0.4v2.7l2.7,0.1V0.5L8.1,0.4z"/>
				</g>
			</g>
			<g id="Group_9333" transform="translate(49.77 97.077)">
				<g id="Group_9331">
					<path id="Path_8765" class="st9" d="M40.9,48.4L0,46.8V0h40.9V48.4z"/>
					<path id="Path_8766" class="st10" d="M57.5,45.7l-16.6,2.7V0h16.6V45.7z"/>
					<path id="Path_8767" class="st11" d="M25.2,47.8l-6.3-0.2V0h6.3V47.8z"/>
				</g>
				<rect id="Rectangle_4292" x="34.4" y="2.4" class="st12" width="4.3" height="14.9"/>
				<g id="Group_9332" transform="translate(0.982 42.671)">
					<path id="Path_8768" class="st11" d="M0,2.7l2.7,0.1V0.1L0,0V2.7z"/>
					<path id="Path_8769" class="st11" d="M4,2.8L6.7,3V0.3L4,0.2V2.8z"/>
					<path id="Path_8770" class="st11" d="M8.1,0.4v2.7l2.7,0.1V0.5L8.1,0.4z"/>
				</g>
			</g>
		</g>
		<g id="Group_9339" transform="translate(541.102 94.78)">
			<g id="Group_9337">
				<g id="Group_9336">
					<path id="Path_8778" class="st2" d="M58,123.3c0,0-22.1-8.9-33.7-23.9S4.1,24,4.1,24L58,4.6h0V0h0L0,21c0,0,9.2,65,21.7,81.2
						S58,127.9,58,127.9h0L58,123.3L58,123.3z"/>
					<path id="Path_8779" class="st2" d="M4.1,24c0,0,8.6,60.4,20.1,75.4S58,123.3,58,123.3h0V4.6h0L4.1,24z"/>
					<path id="Path_8780" class="st2" d="M94.3,102.1C106.8,86,116,20.9,116,20.9L58,0v4.6L111.8,24c0,0-8.6,60.4-20.1,75.4
						c-11.5,14.9-33.5,23.8-33.7,23.9v4.6C58.2,127.8,81.9,118.2,94.3,102.1z"/>
					<path id="Path_8781" class="st2" d="M91.7,99.4c11.6-15,20.1-75.4,20.1-75.4L79,12.2L58,4.6v118.7
						C58.2,123.2,80.2,114.3,91.7,99.4z"/>
					<path id="Path_8782" class="st5" d="M58,13L11.8,29.7c0,0,7.3,51.8,17.3,64.7S58,114.9,58,114.9s19-7.6,28.9-20.5
						s17.3-64.7,17.3-64.7L58,13z"/>
				</g>
				<path id="Path_8783" class="st1" d="M74.6,48.9L74.6,48.9l-0.1-2.2c0-9.1-7.4-16.5-16.5-16.5s-16.5,7.4-16.5,16.5v2.2h-0.1
					c-2.4,0-4.3,1.9-4.3,4.3v28c0,2.4,1.9,4.3,4.3,4.3h33.1c2.4,0,4.3-1.9,4.3-4.3v-28C78.8,50.8,76.9,48.9,74.6,48.9z M60.9,64.6
					v12.9h-5.8V64.6c-2.7-1.6-3.7-5.1-2.1-7.8c0.8-1.3,2-2.2,3.4-2.6c1-0.3,2.1-0.3,3.1,0c3.1,0.8,4.8,4,4,7
					C63.1,62.6,62.2,63.8,60.9,64.6L60.9,64.6z M67.6,48.9H48.4v-2.2c0-5.3,4.3-9.6,9.6-9.6s9.6,4.3,9.6,9.6V48.9z"/>
			</g>
		</g>
		<g id="Group_9340" transform="translate(585.717 37.876)">
			<path id="Path_8788" class="st24" d="M24.4,8.4l8.4,4.6l-8.4,4.6l-4.6,8.4l-4.6-8.4L6.9,13l8.4-4.6L19.9,0L24.4,8.4z"/>
			<path id="Path_8789" class="st24" d="M11,37l5.3,2.9L11,42.7L8.2,48l-2.9-5.3L0,39.9L5.3,37l2.9-5.3L11,37z"/>
			<path id="Path_8790" class="st24" d="M41.5,30.2l8,4.4l-8,4.4l-4.4,8l-4.4-8l-8-4.4l8-4.4l4.4-8L41.5,30.2z"/>
		</g>
	</g>
	<g id="Group_9338" transform="translate(687.66 467.371)">
		<path id="Path_8784" class="st25" d="M5.8,2.8L4.4,0L3.1,2.8L0,3.2l2.2,2.2l-0.5,3L4.4,7l2.7,1.4l-0.5-3l2.2-2.2L5.8,2.8z"/>
		<path id="Path_8785" class="st25" d="M16,2.8L14.7,0l-1.4,2.8l-3.1,0.4l2.2,2.2l-0.5,3L14.7,7l2.7,1.4l-0.5-3l2.2-2.2L16,2.8z"/>
		<path id="Path_8786" class="st25" d="M26.3,2.8L24.9,0l-1.4,2.8l-3.1,0.4l2.2,2.2l-0.5,3L24.9,7l2.7,1.4l-0.5-3l2.2-2.2L26.3,2.8z
			"/>
		<path id="Path_8787" class="st25" d="M39.6,3.2l-3.1-0.4L35.1,0l-1.4,2.8l-3.1,0.4l2.2,2.2l-0.5,3L35.1,7l2.7,1.4l-0.5-3L39.6,3.2
			z"/>
	</g>
</g>
</svg>
