<svg xmlns="http://www.w3.org/2000/svg" width="984.781" height="891.877" viewBox="0 0 984.781 891.877">
  <g id="Group_9273" data-name="Group 9273" transform="matrix(0.996, -0.087, 0.087, 0.996, -106.591, 31.075)" opacity="0.486">
    <path id="Path_8665" data-name="Path 8665" d="M1670.495,1336.74c-8.946,110.316,22.571-141.463,23.885-273.012.594-59.46,12.739-145.606,12.739-145.606s24.481-73.082-31.368-107.577C1573.836,747.6,1412.982,937.393,1250,828.527S1394.762,586.065,833.39,552.47c-182.417,0,896.775,69.993,896.775,69.993S1679.441,1226.424,1670.495,1336.74Z" transform="translate(-711 -491)" fill-rule="evenodd" opacity="0.05"/>
    <path id="Path_8666" data-name="Path 8666" d="M2034.655,852.294S2021.169,962.12,2024.4,969.508s-12.943,144.547-12.943,144.547-159.847-195.021-268.774-262.3-250.006,72.945-455.6,0-140.812-84.624-140.812-84.624l626.186,62.228Z" transform="translate(-1013.712 -709)" fill="#353535" fill-rule="evenodd" opacity="0.05"/>
  </g>
</svg>
