<?xml version="1.0" encoding="utf-8"?>
<!-- Generator: Adobe Illustrator 27.3.1, SVG Export Plug-In . SVG Version: 6.00 Build 0)  -->
<svg version="1.1" id="Group_9335" xmlns="http://www.w3.org/2000/svg" xmlns:xlink="http://www.w3.org/1999/xlink" x="0px" y="0px"
	 viewBox="0 0 287.2 155.1" style="enable-background:new 0 0 287.2 155.1;" xml:space="preserve">
<style type="text/css">
	.st0{fill:url(#Path_8771_00000065067607001120930220000003261747188825012414_);}
	.st1{fill:#009688;}
	.st2{fill:#ff3a96;}
	.st3{fill:#FFFBF8;}
</style>
<linearGradient id="Path_8771_00000072994503856592664410000016665158517226698400_" gradientUnits="userSpaceOnUse" x1="-494.0251" y1="585.9228" x2="-493.0251" y2="585.9228" gradientTransform="matrix(18.477 0 0 -14.151 14244.8516 8390.5947)">
	<stop  offset="0" style="stop-color:#FCE4D2"/>
	<stop  offset="0.999" style="stop-color:#F1F9FE"/>
	<stop  offset="1" style="stop-color:#F1F9FE"/>
</linearGradient>
<path id="Path_8771" style="fill:url(#Path_8771_00000072994503856592664410000016665158517226698400_);" d="M19.6,92.1H7.1
	C5.4,94.5,4,97,2.8,99.6c-0.8,2.1-1.4,4.4-1.7,6.7h13.2L19.6,92.1z"/>
<ellipse id="Ellipse_721" class="st1" cx="40.2" cy="134.7" rx="20.6" ry="20.4"/>
<ellipse id="Ellipse_722" class="st1" cx="235.8" cy="134.7" rx="20.6" ry="20.4"/>
<path id="Path_8772" class="st1" d="M82.6,115.4h32.2V29.7c-13.9,0.4-34.9,0-44.7,5.7c-10.8,6.2-34.3,36.8-43,39.3
	c-6.5,1.9-14.6,9.9-20,17.5h12.4l-5.3,14.2H1.1c-1.8,12.1-0.9,31.9-0.9,31.9h12.3c-2.2-15.4,8.4-29.7,23.8-31.9
	c15.4-2.2,29.7,8.4,31.9,23.8c0.4,2.7,0.4,5.4,0,8.1h46.5v-15.3H73.1L82.6,115.4z"/>
<path id="Path_8773" class="st2" d="M82.6,115.4l-9.5,7.5h41.8v-7.5H82.6z"/>
<path id="Path_8774" class="st2" d="M103.7,39.4c-0.3-1.7-25.5-1.9-30.5,2.8c-0.7,0.7-5.3,5.4-10.6,11v20.4
	c10.1-0.3,21.4-0.7,27.2-1.2c1.2-0.1,2.4-0.3,3.6-0.5c6.1-1.2,10.5-6.5,10.5-12.7C103.8,51.7,103.9,40.5,103.7,39.4z"/>
<path id="Path_8775" class="st2" d="M42.6,74.1c0,0,9.3-0.1,19.9-0.4V53.2C53.6,62.4,42.6,74.1,42.6,74.1z"/>
<rect id="Rectangle_4293" x="276.6" y="109.6" class="st3" width="10.7" height="20.3"/>
<ellipse id="Ellipse_723" class="st2" cx="40.2" cy="134.7" rx="12.8" ry="12.6"/>
<ellipse id="Ellipse_724" class="st2" cx="235.8" cy="134.7" rx="12.8" ry="12.6"/>
<path id="Rectangle_4294" class="st2" d="M91.2,79.1h7.1c1.3,0,2.4,1.1,2.4,2.4l0,0c0,1.3-1.1,2.4-2.4,2.4h-7.1
	c-1.3,0-2.4-1.1-2.4-2.4l0,0C88.8,80.1,89.9,79.1,91.2,79.1z"/>
<path id="Path_8776" class="st2" d="M166.5,92.1h120.1V7.3c0-4-3.3-7.3-7.3-7.3H121.5c-4,0-7.3,3.2-7.3,7.3v130.9H159V99.5
	C159.1,95.4,162.4,92.1,166.5,92.1z"/>
<path id="Path_8777" class="st1" d="M206.8,134c0-16.3,13.1-29.4,29.4-29.5s29.4,13.1,29.5,29.4c0,1.4-0.1,2.8-0.3,4.2h21.9v-8.3
	h-10.7v-20.3h10.7V92.1H167.2c-4.1,0-7.4,3.3-7.4,7.4v38.7h47.4C206.9,136.8,206.8,135.4,206.8,134z"/>

</svg>
