<?xml version="1.0" encoding="utf-8"?>
<!-- Generator: Adobe Illustrator 27.3.1, SVG Export Plug-In . SVG Version: 6.00 Build 0)  -->
<svg version="1.1" id="Layer_1" xmlns="http://www.w3.org/2000/svg" xmlns:xlink="http://www.w3.org/1999/xlink" x="0px" y="0px"
	 viewBox="0 0 84.1 84.1" style="enable-background:new 0 0 84.1 84.1;" xml:space="preserve">
<style type="text/css">
	.st0{fill:#ff3a96;}
</style>
<path id="Path_8677" class="st0" d="M12.7,36.4l4.7,1.7c1.4,0.5,2.2,1.8,2.2,3.3c0,1.1,0,2.2,0.1,3.3c0.2,1.4-0.6,2.8-1.9,3.4
	l-4.9,2.3c-1.5,0.7-2.2,2.5-1.5,4c0,0,0,0,0,0l1.3,2.8c0.8,1.7,2.8,2.4,4.4,1.6l4.6-2.1c1.3-0.6,2.8-0.3,3.8,0.8
	c0.7,0.8,1.5,1.5,2.4,2.2c1.1,0.9,1.6,2.4,1.1,3.8l-1.7,4.7c-0.6,1.7,0.3,3.6,2,4.3c0,0,0,0,0,0l2.6,0.9c1.7,0.6,3.6-0.3,4.3-2l0,0
	l1.7-4.7c0.5-1.4,1.8-2.2,3.3-2.2c1.1,0,2.2,0,3.3-0.1c1.4-0.2,2.8,0.6,3.4,1.9l2.1,4.6c0.8,1.7,2.8,2.4,4.4,1.6l2.8-1.3
	c1.5-0.7,2.2-2.5,1.5-4c0,0,0,0,0,0l-2.3-4.9c-0.6-1.3-0.3-2.8,0.8-3.8c0.8-0.7,1.5-1.5,2.2-2.4c0.9-1.1,2.4-1.6,3.8-1.1l4.7,1.7
	c1.7,0.6,3.6-0.3,4.3-2l0,0l0.9-2.6c0.6-1.7-0.3-3.6-2-4.3l0,0L66.6,46c-1.4-0.5-2.2-1.8-2.2-3.3c0-1.1,0-2.2-0.2-3.2
	c-0.2-1.4,0.6-2.8,1.9-3.4l4.9-2.3c1.5-0.7,2.2-2.5,1.5-4c0,0,0,0,0,0l-1.3-2.8c-0.8-1.7-2.8-2.4-4.4-1.6l-4.6,2.1
	c-1.3,0.6-2.8,0.3-3.8-0.8c-0.7-0.8-1.5-1.5-2.4-2.2c-1.1-0.9-1.6-2.4-1.1-3.8l1.7-4.7c0.6-1.7-0.3-3.6-2-4.3l0,0L52,10.8
	c-1.7-0.6-3.6,0.3-4.3,2c0,0,0,0,0,0L46,17.5c-0.5,1.4-1.8,2.2-3.3,2.2c-1.1,0-2.2,0-3.3,0.1C38,20,36.6,19.3,36,18l-2.1-4.6
	c-0.8-1.7-2.8-2.4-4.4-1.6L26.6,13c-1.5,0.7-2.2,2.5-1.5,4c0,0,0,0,0,0l2.3,4.9c0.6,1.3,0.3,2.8-0.8,3.8c-0.8,0.7-1.5,1.5-2.2,2.4
	c-0.9,1.1-2.4,1.6-3.8,1.1L16,27.5c-1.7-0.6-3.6,0.3-4.3,2c0,0,0,0,0,0l-0.9,2.6C10.1,33.9,11,35.8,12.7,36.4z M31.5,37.2
	c2.7-5.8,9.6-8.4,15.4-5.7c5.8,2.7,8.4,9.6,5.7,15.4c-2.4,5.2-8.1,7.9-13.6,6.4c-6.2-1.7-9.8-8.1-8.1-14.3
	C31,38.3,31.2,37.8,31.5,37.2L31.5,37.2z"/>
</svg>
